<svg width="50" height="50" viewBox="0 0 50 50" fill="none" xmlns="http://www.w3.org/2000/svg">
<path d="M28.208 19.1672L35.6455 30.8344L36.2283 31.7094L37.9783 30.6891L37.3955 29.8141L29.958 18.1469L29.3752 17.125L27.6252 18.1453L28.208 19.1656V19.1672ZM20.0408 18L12.6033 29.6672L12.0205 30.5422L13.7705 31.5625L14.3533 30.8328L21.7908 19.1656L22.3736 18.2906L20.6252 17.125L20.0408 18Z" fill="#3FDF6F"/>
<path d="M25 20.4797C27.046 20.4666 29.0045 19.648 30.4513 18.2012C31.898 16.7545 32.7166 14.796 32.7297 12.75C32.7217 10.6889 31.9093 8.71239 30.4655 7.24145C29.0217 5.77051 27.0606 4.92141 25 4.875C22.954 4.88811 20.9956 5.70669 19.5488 7.15346C18.102 8.60022 17.2835 10.5587 17.2703 12.6047C17.2784 14.6658 18.0908 16.6423 19.5346 18.1132C20.9784 19.5842 22.9394 20.4333 25 20.4797ZM25 18.4375C23.4921 18.4358 22.0464 17.8361 20.9802 16.7698C19.9139 15.7036 19.3142 14.2579 19.3125 12.75C19.3125 11.2416 19.9117 9.79494 20.9784 8.72833C22.045 7.66172 23.4916 7.0625 25 7.0625C26.5085 7.0625 27.9551 7.66172 29.0217 8.72833C30.0883 9.79494 30.6875 11.2416 30.6875 12.75C30.6859 14.2579 30.0861 15.7036 29.0199 16.7698C27.9536 17.8361 26.5079 18.4358 25 18.4375ZM39.1453 45.125C40.6741 45.125 42.1686 44.6717 43.4397 43.8223C44.7109 42.973 45.7016 41.7658 46.2866 40.3533C46.8717 38.9409 47.0248 37.3867 46.7265 35.8873C46.4283 34.3879 45.6921 33.0106 44.6111 31.9296C43.53 30.8486 42.1527 30.1124 40.6533 29.8141C39.1539 29.5159 37.5997 29.669 36.1873 30.254C34.7749 30.8391 33.5677 31.8298 32.7183 33.1009C31.869 34.3721 31.4157 35.8665 31.4157 37.3953C31.4288 39.4413 32.2473 41.3998 33.6941 42.8465C35.1409 44.2933 37.0993 45.1119 39.1453 45.125ZM39.1453 43.0828C37.6374 43.0812 36.1918 42.4814 35.1255 41.4152C34.0592 40.3489 33.4595 38.9032 33.4578 37.3953C33.4578 35.8869 34.0571 34.4403 35.1237 33.3736C36.1903 32.307 37.6369 31.7078 39.1453 31.7078C40.6538 31.7078 42.1004 32.307 43.167 33.3736C44.2336 34.4403 44.8328 35.8869 44.8328 37.3953C44.8312 38.9032 44.2314 40.3489 43.1652 41.4152C42.0989 42.4814 40.6533 43.0812 39.1453 43.0828ZM10.8547 45.125C11.8789 45.1396 12.8958 44.9504 13.8463 44.5685C14.7968 44.1866 15.6619 43.6197 16.3913 42.9005C17.1208 42.1814 17.7 41.3244 18.0954 40.3795C18.4907 39.4345 18.6943 38.4204 18.6943 37.3961C18.6943 36.3718 18.4907 35.3577 18.0954 34.4127C17.7 33.4678 17.1208 32.6108 16.3913 31.8917C15.6619 31.1725 14.7968 30.6055 13.8463 30.2237C12.8958 29.8418 11.8789 29.6526 10.8547 29.6672C9.8305 29.6526 8.8136 29.8418 7.86312 30.2237C6.91264 30.6055 6.04754 31.1725 5.3181 31.8917C4.58867 32.6108 4.00944 33.4678 3.61408 34.4127C3.21873 35.3577 3.01514 36.3718 3.01514 37.3961C3.01514 38.4204 3.21873 39.4345 3.61408 40.3795C4.00944 41.3244 4.58867 42.1814 5.3181 42.9005C6.04754 43.6197 6.91264 44.1866 7.86312 44.5685C8.8136 44.9504 9.8305 45.1396 10.8547 45.125ZM10.8547 43.0828C9.34681 43.0812 7.90113 42.4814 6.83488 41.4152C5.76862 40.3489 5.16887 38.9032 5.16722 37.3953C5.19371 35.8952 5.80143 34.4639 6.86235 33.4029C7.92328 32.342 9.35458 31.7343 10.8547 31.7078C12.3549 31.7343 13.7862 32.342 14.8471 33.4029C15.908 34.4639 16.5157 35.8952 16.5422 37.3953C16.5406 38.9032 15.9408 40.3489 14.8746 41.4152C13.8083 42.4814 12.3626 43.0812 10.8547 43.0828Z" fill="#3FDF6F"/>
<path d="M10.8545 40.0205C12.3042 40.0205 13.4795 38.8453 13.4795 37.3955C13.4795 35.9458 12.3042 34.7705 10.8545 34.7705C9.40474 34.7705 8.22949 35.9458 8.22949 37.3955C8.22949 38.8453 9.40474 40.0205 10.8545 40.0205Z" fill="#91EDAC"/>
</svg>
