<svg width="50" height="50" viewBox="0 0 50 50" fill="none" xmlns="http://www.w3.org/2000/svg">
<path d="M13.3779 23.8375C17.1092 25.149 21.0455 25.7804 24.9998 25.7016C28.9542 25.7799 32.8905 25.148 36.6217 23.8359C39.5342 22.7 40.567 21.4375 40.567 20.7109V15.1562C39.5487 15.8382 38.4563 16.4022 37.3107 16.8375C33.363 18.2511 29.1924 18.9403 24.9998 18.8719C20.8075 18.939 16.6374 18.2509 12.6889 16.8406C11.5427 16.4053 10.4502 15.8401 9.43262 15.1562V20.7031C9.43262 21.4438 10.4686 22.7 13.3779 23.8375ZM13.3779 34.3141C14.6961 34.8168 16.0553 35.2041 17.4404 35.4719C19.9311 35.9537 22.463 36.1908 24.9998 36.1797C27.5366 36.1913 30.0684 35.9547 32.5592 35.4734C33.9443 35.2057 35.3035 34.8183 36.6217 34.3156C39.5342 33.1797 40.567 31.9172 40.567 31.1906V25.8938C39.7253 26.4002 38.8406 26.8316 37.9232 27.1828C33.776 28.6512 29.3986 29.362 24.9998 29.2812C20.6006 29.3595 16.2231 28.646 12.0764 27.175C11.1594 26.8229 10.2748 26.3915 9.43262 25.8859V31.1875C9.43262 31.9156 10.4686 33.1734 13.3779 34.3141ZM24.9998 46.875C33.5936 46.875 40.567 44.15 40.567 40.7906V36.3578C39.8013 36.8194 38.9991 37.2176 38.1686 37.5484L37.9232 37.6469C33.7768 39.1196 29.3993 39.8346 24.9998 39.7578C20.6001 39.8368 16.2222 39.1218 12.0764 37.6469C11.992 37.6156 11.9107 37.5797 11.8311 37.5484C11.0005 37.2176 10.1983 36.8194 9.43262 36.3578V40.7906C9.43262 44.15 16.4061 46.875 24.9998 46.875Z" fill="#3FDF6F"/>
<path d="M24.9998 15.2937C33.5973 15.2937 40.567 12.5697 40.567 9.20937C40.567 5.84907 33.5973 3.125 24.9998 3.125C16.4023 3.125 9.43262 5.84907 9.43262 9.20937C9.43262 12.5697 16.4023 15.2937 24.9998 15.2937Z" fill="#3FDF6F"/>
</svg>
