<svg width="50" height="50" viewBox="0 0 50 50" fill="none" xmlns="http://www.w3.org/2000/svg">
<path d="M45.4373 21.3542C45.3123 21.2708 44.2707 20.4583 42.0207 20.4583C41.4373 20.4583 40.854 20.5208 40.2707 20.625C39.8332 17.7083 37.3957 16.2292 37.2915 16.1667L36.6873 15.8125L36.3123 16.375C35.8123 17.125 35.4165 17.9792 35.2498 18.8542C34.8332 20.5208 35.0832 22.1042 35.9373 23.4583C34.9165 24.0417 33.2498 24.1875 32.8957 24.1875H5.45817C4.74984 24.1875 4.1665 24.7708 4.1665 25.5C4.1665 27.8958 4.5415 30.2917 5.37484 32.5417C6.31234 35.0208 7.729 36.8542 9.5415 37.9792C11.5832 39.2292 14.9373 39.9375 18.7498 39.9375C20.3957 39.9375 22.104 39.7917 23.7915 39.4792C26.1248 39.0625 28.3748 38.25 30.4373 37.0625C32.1455 36.0857 33.6744 34.8246 34.9582 33.3333C37.1457 30.8958 38.4373 28.125 39.3748 25.7292H39.7707C42.1457 25.7292 43.6248 24.7708 44.4373 23.9583C44.979 23.4583 45.3748 22.8542 45.6665 22.1458L45.8332 21.6458L45.4373 21.3542ZM8.02067 23.4167H11.6873C11.854 23.4167 12.0207 23.2708 12.0207 23.0833V19.7917C12.0207 19.625 11.8748 19.4583 11.6873 19.4583H8.02067C7.83317 19.4583 7.68734 19.6042 7.68734 19.7917V23.0833C7.70817 23.2708 7.83317 23.4167 8.02067 23.4167ZM13.0832 23.4167H16.7498C16.9165 23.4167 17.0832 23.2708 17.0832 23.0833V19.7917C17.0832 19.625 16.9373 19.4583 16.7498 19.4583H13.0832C12.8957 19.4583 12.7498 19.6042 12.7498 19.7917V23.0833C12.7707 23.2708 12.8957 23.4167 13.0832 23.4167ZM18.229 23.4167H21.8748C22.0832 23.4167 22.229 23.2708 22.229 23.0833V19.7917C22.229 19.625 22.104 19.4583 21.8748 19.4583H18.229C18.0623 19.4583 17.9165 19.6042 17.9165 19.7917V23.0833C17.9165 23.2708 18.0415 23.4167 18.229 23.4167ZM23.3123 23.4167H26.9998C27.1665 23.4167 27.3123 23.2708 27.3123 23.0833V19.7917C27.3123 19.625 27.1873 19.4583 26.9998 19.4583H23.3123C23.1457 19.4583 22.9998 19.6042 22.9998 19.7917V23.0833C22.9998 23.2708 23.1457 23.4167 23.3123 23.4167ZM13.0832 18.75H16.7498C16.9165 18.75 17.0832 18.5625 17.0832 18.375V15.1042C17.0832 14.9167 16.9373 14.7708 16.7498 14.7708H13.0832C12.8957 14.7708 12.7498 14.8958 12.7498 15.1042V18.375C12.7707 18.5625 12.8957 18.75 13.0832 18.75ZM18.229 18.75H21.8748C22.0832 18.75 22.229 18.5625 22.229 18.375V15.1042C22.229 14.9167 22.104 14.7708 21.8748 14.7708H18.229C18.0623 14.7708 17.9165 14.8958 17.9165 15.1042V18.375C17.9165 18.5625 18.0415 18.75 18.229 18.75ZM23.3123 18.75H26.9998C27.1665 18.75 27.3123 18.5625 27.3123 18.375V15.1042C27.3123 14.9167 27.1665 14.7708 26.9998 14.7708H23.3123C23.1457 14.7708 22.9998 14.8958 22.9998 15.1042V18.375C22.9998 18.5625 23.1457 18.75 23.3123 18.75ZM23.3123 14H26.9998C27.1665 14 27.3123 13.8542 27.3123 13.6667V10.4167C27.3123 10.2083 27.1665 10.0625 26.9998 10.0625H23.3123C23.1457 10.0625 22.9998 10.1875 22.9998 10.4167V13.6667C22.9998 13.8333 23.1457 14 23.3123 14ZM28.4373 23.4167H32.104C32.2915 23.4167 32.4373 23.2708 32.4373 23.0833V19.7917C32.4373 19.625 32.2915 19.4583 32.104 19.4583H28.4373C28.2707 19.4583 28.1248 19.6042 28.1248 19.7917V23.0833C28.1248 23.2708 28.2707 23.4167 28.4373 23.4167Z" fill="#3FDF6F"/>
</svg>
