<svg width="50" height="50" viewBox="0 0 50 50" fill="none" xmlns="http://www.w3.org/2000/svg">
<path d="M30.4585 17.3957C29.5835 17.979 26.8127 19.5623 26.396 19.8748C25.5835 20.5207 24.8335 20.479 24.021 19.854C23.6043 19.5207 20.8335 17.9373 19.9585 17.3748C18.9585 16.729 19.021 15.9165 20.1252 15.4582C23.5418 14.0207 26.9585 14.1248 30.3543 15.5207C31.3752 15.9582 31.4168 16.7707 30.4585 17.3957ZM45.5002 32.5623C43.5627 28.2082 40.9168 24.2498 37.5002 20.7707C36.4438 19.6735 35.6839 18.3257 35.2918 16.854C35.0835 16.1665 34.9377 15.4582 34.7918 14.7498C34.3752 12.9165 34.1877 11.0415 33.3335 9.31234C31.8127 6.02067 29.1668 4.31234 25.3335 4.1665C21.5627 4.27067 18.7502 5.854 17.1043 9.1665C16.6668 10.0623 16.3543 10.9998 16.146 11.9582C15.7918 13.5415 15.4793 15.1873 15.1043 16.7915C14.7918 18.1457 14.1668 19.3123 13.1043 20.354C9.75016 23.6248 7.06266 27.3748 5.02099 31.4998C4.72933 32.104 4.43766 32.7082 4.25016 33.3332C3.85432 34.7082 4.85432 35.6665 6.31266 35.3332C7.22932 35.1457 8.14599 34.9582 9.02099 34.6873C9.87516 34.3748 10.2085 34.5832 10.4168 35.4165C11.771 39.8957 14.7293 43.0415 19.2502 44.7915C27.8335 48.0415 37.8543 43.4165 40.021 35.2498C40.1668 34.6873 40.3752 34.479 41.0002 34.6873C41.9585 34.979 42.9377 35.1873 43.9168 35.4165C44.9377 35.604 45.6877 35.0832 45.8335 34.0832C45.896 33.5415 45.7085 33.0623 45.5002 32.5623Z" fill="#3FDF6F"/>
</svg>
